<mxfile host="Electron" agent="Mozilla/5.0 (Windows NT 10.0; Win64; x64) AppleWebKit/537.36 (KHTML, like Gecko) draw.io/26.2.2 Chrome/134.0.6998.178 Electron/35.1.2 Safari/537.36" version="26.2.2">
  <diagram name="Page-1" id="f1Gq6Bqs_0aDnHofK6-2">
    <mxGraphModel dx="858" dy="502" grid="1" gridSize="10" guides="1" tooltips="1" connect="1" arrows="1" fold="1" page="1" pageScale="1" pageWidth="827" pageHeight="1169" math="0" shadow="0">
      <root>
        <mxCell id="0" />
        <mxCell id="1" parent="0" />
        <mxCell id="t4FvO_c9sySQBK1Zlrzb-22" value="" style="group" vertex="1" connectable="0" parent="1">
          <mxGeometry x="150" y="100" width="460" height="360" as="geometry" />
        </mxCell>
        <mxCell id="t4FvO_c9sySQBK1Zlrzb-5" style="edgeStyle=orthogonalEdgeStyle;rounded=0;orthogonalLoop=1;jettySize=auto;html=1;entryX=0.5;entryY=0;entryDx=0;entryDy=0;" edge="1" parent="t4FvO_c9sySQBK1Zlrzb-22" source="t4FvO_c9sySQBK1Zlrzb-1" target="t4FvO_c9sySQBK1Zlrzb-4">
          <mxGeometry relative="1" as="geometry" />
        </mxCell>
        <mxCell id="t4FvO_c9sySQBK1Zlrzb-6" style="edgeStyle=orthogonalEdgeStyle;rounded=0;orthogonalLoop=1;jettySize=auto;html=1;entryX=0.5;entryY=0;entryDx=0;entryDy=0;" edge="1" parent="t4FvO_c9sySQBK1Zlrzb-22" source="t4FvO_c9sySQBK1Zlrzb-1" target="t4FvO_c9sySQBK1Zlrzb-3">
          <mxGeometry relative="1" as="geometry" />
        </mxCell>
        <mxCell id="t4FvO_c9sySQBK1Zlrzb-1" value="Column" style="rounded=0;whiteSpace=wrap;html=1;fillColor=#dae8fc;strokeColor=none;fontSize=16;fontStyle=1" vertex="1" parent="t4FvO_c9sySQBK1Zlrzb-22">
          <mxGeometry x="230" width="120" height="60" as="geometry" />
        </mxCell>
        <mxCell id="t4FvO_c9sySQBK1Zlrzb-2" value="Is the column Numeric ?" style="text;html=1;align=center;verticalAlign=middle;whiteSpace=wrap;rounded=0;fontSize=14;fontStyle=0" vertex="1" parent="t4FvO_c9sySQBK1Zlrzb-22">
          <mxGeometry x="150" y="60" width="280" height="30" as="geometry" />
        </mxCell>
        <mxCell id="t4FvO_c9sySQBK1Zlrzb-14" style="edgeStyle=orthogonalEdgeStyle;rounded=0;orthogonalLoop=1;jettySize=auto;html=1;entryX=0.5;entryY=0;entryDx=0;entryDy=0;" edge="1" parent="t4FvO_c9sySQBK1Zlrzb-22" source="t4FvO_c9sySQBK1Zlrzb-3" target="t4FvO_c9sySQBK1Zlrzb-12">
          <mxGeometry relative="1" as="geometry" />
        </mxCell>
        <mxCell id="t4FvO_c9sySQBK1Zlrzb-16" style="edgeStyle=orthogonalEdgeStyle;rounded=0;orthogonalLoop=1;jettySize=auto;html=1;entryX=0.5;entryY=0;entryDx=0;entryDy=0;" edge="1" parent="t4FvO_c9sySQBK1Zlrzb-22" source="t4FvO_c9sySQBK1Zlrzb-3" target="t4FvO_c9sySQBK1Zlrzb-13">
          <mxGeometry relative="1" as="geometry" />
        </mxCell>
        <mxCell id="t4FvO_c9sySQBK1Zlrzb-3" value="Yes" style="text;html=1;align=center;verticalAlign=middle;whiteSpace=wrap;rounded=1;fillColor=#d5e8d4;strokeColor=none;" vertex="1" parent="t4FvO_c9sySQBK1Zlrzb-22">
          <mxGeometry x="130" y="110" width="60" height="30" as="geometry" />
        </mxCell>
        <mxCell id="t4FvO_c9sySQBK1Zlrzb-9" style="edgeStyle=orthogonalEdgeStyle;rounded=0;orthogonalLoop=1;jettySize=auto;html=1;entryX=0.5;entryY=0;entryDx=0;entryDy=0;" edge="1" parent="t4FvO_c9sySQBK1Zlrzb-22" source="t4FvO_c9sySQBK1Zlrzb-4" target="t4FvO_c9sySQBK1Zlrzb-8">
          <mxGeometry relative="1" as="geometry" />
        </mxCell>
        <mxCell id="t4FvO_c9sySQBK1Zlrzb-4" value="No" style="text;html=1;align=center;verticalAlign=middle;whiteSpace=wrap;rounded=1;fillColor=#d5e8d4;strokeColor=none;" vertex="1" parent="t4FvO_c9sySQBK1Zlrzb-22">
          <mxGeometry x="390" y="110" width="60" height="30" as="geometry" />
        </mxCell>
        <mxCell id="t4FvO_c9sySQBK1Zlrzb-8" value="Dimension" style="ellipse;whiteSpace=wrap;html=1;fillColor=#fff2cc;strokeColor=none;" vertex="1" parent="t4FvO_c9sySQBK1Zlrzb-22">
          <mxGeometry x="380" y="170" width="80" height="70" as="geometry" />
        </mxCell>
        <mxCell id="t4FvO_c9sySQBK1Zlrzb-10" value="Does it makes sense to aggregate it?" style="text;html=1;align=center;verticalAlign=middle;whiteSpace=wrap;rounded=0;fontSize=14;" vertex="1" parent="t4FvO_c9sySQBK1Zlrzb-22">
          <mxGeometry y="140" width="340" height="30" as="geometry" />
        </mxCell>
        <mxCell id="t4FvO_c9sySQBK1Zlrzb-19" style="edgeStyle=orthogonalEdgeStyle;rounded=0;orthogonalLoop=1;jettySize=auto;html=1;entryX=0.5;entryY=0;entryDx=0;entryDy=0;" edge="1" parent="t4FvO_c9sySQBK1Zlrzb-22" source="t4FvO_c9sySQBK1Zlrzb-12" target="t4FvO_c9sySQBK1Zlrzb-18">
          <mxGeometry relative="1" as="geometry" />
        </mxCell>
        <mxCell id="t4FvO_c9sySQBK1Zlrzb-12" value="Yes" style="text;html=1;align=center;verticalAlign=middle;whiteSpace=wrap;rounded=1;fillColor=#d5e8d4;strokeColor=none;" vertex="1" parent="t4FvO_c9sySQBK1Zlrzb-22">
          <mxGeometry x="30" y="220" width="60" height="30" as="geometry" />
        </mxCell>
        <mxCell id="t4FvO_c9sySQBK1Zlrzb-20" style="edgeStyle=orthogonalEdgeStyle;rounded=0;orthogonalLoop=1;jettySize=auto;html=1;entryX=0.5;entryY=0;entryDx=0;entryDy=0;" edge="1" parent="t4FvO_c9sySQBK1Zlrzb-22" source="t4FvO_c9sySQBK1Zlrzb-13" target="t4FvO_c9sySQBK1Zlrzb-17">
          <mxGeometry relative="1" as="geometry" />
        </mxCell>
        <mxCell id="t4FvO_c9sySQBK1Zlrzb-13" value="No" style="text;html=1;align=center;verticalAlign=middle;whiteSpace=wrap;rounded=1;fillColor=#d5e8d4;strokeColor=none;" vertex="1" parent="t4FvO_c9sySQBK1Zlrzb-22">
          <mxGeometry x="230" y="220" width="60" height="30" as="geometry" />
        </mxCell>
        <mxCell id="t4FvO_c9sySQBK1Zlrzb-17" value="Dimension" style="ellipse;whiteSpace=wrap;html=1;fillColor=#fff2cc;strokeColor=none;" vertex="1" parent="t4FvO_c9sySQBK1Zlrzb-22">
          <mxGeometry x="220" y="290" width="80" height="70" as="geometry" />
        </mxCell>
        <mxCell id="t4FvO_c9sySQBK1Zlrzb-18" value="Measure" style="ellipse;whiteSpace=wrap;html=1;fillColor=#fff2cc;strokeColor=none;" vertex="1" parent="t4FvO_c9sySQBK1Zlrzb-22">
          <mxGeometry x="20" y="290" width="80" height="70" as="geometry" />
        </mxCell>
        <mxCell id="t4FvO_c9sySQBK1Zlrzb-23" value="Dimension&lt;font style=&quot;font-size: 20px;&quot;&gt;/&lt;/font&gt;Measure Concept" style="text;html=1;align=center;verticalAlign=middle;whiteSpace=wrap;rounded=0;fontSize=18;fontStyle=1" vertex="1" parent="1">
          <mxGeometry x="30" y="30" width="260" height="80" as="geometry" />
        </mxCell>
      </root>
    </mxGraphModel>
  </diagram>
</mxfile>
